<svg xmlns="http://www.w3.org/2000/svg" viewBox="0 0 1000 1000"><defs><style>.cls-1{fill:none;}.cls-2{fill:#fff;}</style></defs><g id="Capa_2" data-name="Capa 2"><g id="Capa_19" data-name="Capa 19"><g id="Capa_20" data-name="Capa 20"><rect class="cls-1" width="1000" height="1000"/></g><g id="Capa_21" data-name="Capa 21"><path class="cls-2" d="M432.11,656.14a70.28,70.28,0,0,0,99.4,0h0a70.29,70.29,0,0,0,0-99.39L318.67,343.91a70.28,70.28,0,0,0-99.4,0h0a70.29,70.29,0,0,0,0,99.4L345.17,568.9Z"/><path class="cls-2" d="M531.51,130.94a70.3,70.3,0,0,0-99.41,0L219.27,343.78c-26.88,26.87-28.56,68.93-2.81,96.49l1.09,1.16,1.42,1.41c.1.11.19.23.3.34s.24.2.35.32L345.17,568.9c-67.6-67.6,23.16-175.38,23.16-175.38h0l163.2-163.19A70.3,70.3,0,0,0,531.51,130.94Z"/><path class="cls-2" d="M567.9,343.86a70.3,70.3,0,0,0-99.41,0h0a70.3,70.3,0,0,0,0,99.4L681.33,656.1a70.28,70.28,0,0,0,99.4,0h0a70.3,70.3,0,0,0,0-99.41L654.83,431.11Z"/><path class="cls-2" d="M468.49,869.06a70.3,70.3,0,0,0,99.41,0L780.73,656.22c26.88-26.87,28.56-68.93,2.81-96.48l-1.09-1.17L781,557.16c-.1-.11-.19-.23-.3-.33s-.24-.21-.36-.32L654.83,431.11c67.6,67.6-23.16,175.37-23.16,175.37h0L468.5,769.67A70.28,70.28,0,0,0,468.49,869.06Z"/></g></g></g></svg>