<svg xmlns="http://www.w3.org/2000/svg" xmlns:xlink="http://www.w3.org/1999/xlink" viewBox="0 0 1000 1000"><defs><style>.cls-1{fill:none;}.cls-2{fill:url(#radial-gradient);}.cls-3{fill:url(#linear-gradient);}.cls-4{fill:url(#linear-gradient-2);}.cls-5{fill:url(#linear-gradient-3);}</style><radialGradient id="radial-gradient" cx="211.66" cy="375.99" r="390.72" gradientUnits="userSpaceOnUse"><stop offset="0.17" stop-color="#1b75b8"/><stop offset="0.33" stop-color="#1b79b8"/><stop offset="0.5" stop-color="#1a85b8"/><stop offset="0.66" stop-color="#1a99b8"/><stop offset="0.82" stop-color="#19b5b8"/><stop offset="0.99" stop-color="#17d9b8"/><stop offset="1" stop-color="#17dcb8"/></radialGradient><linearGradient id="linear-gradient" x1="270.98" y1="339.63" x2="765.47" y2="339.63" gradientUnits="userSpaceOnUse"><stop offset="0" stop-color="#17dcb8"/><stop offset="0.01" stop-color="#17d9b8"/><stop offset="0.18" stop-color="#19b5b8"/><stop offset="0.34" stop-color="#1a99b8"/><stop offset="0.5" stop-color="#1a85b8"/><stop offset="0.67" stop-color="#1b79b8"/><stop offset="0.83" stop-color="#1b75b8"/></linearGradient><linearGradient id="linear-gradient-2" x1="2398.9" y1="2461.28" x2="2752.3" y2="2461.28" gradientTransform="translate(3200.21 2961.26) rotate(180)" gradientUnits="userSpaceOnUse"><stop offset="0.01" stop-color="#a40054"/><stop offset="0.14" stop-color="#a70652"/><stop offset="0.32" stop-color="#b1174b"/><stop offset="0.53" stop-color="#c13440"/><stop offset="0.76" stop-color="#d65b30"/><stop offset="1" stop-color="#f28d1d"/></linearGradient><linearGradient id="linear-gradient-3" x1="2471.2" y1="2300.88" x2="2965.68" y2="2300.88" gradientTransform="translate(3200.21 2961.26) rotate(180)" gradientUnits="userSpaceOnUse"><stop offset="0" stop-color="#f28d1d"/><stop offset="0.24" stop-color="#d65b30"/><stop offset="0.47" stop-color="#c13440"/><stop offset="0.68" stop-color="#b1174b"/><stop offset="0.86" stop-color="#a70652"/><stop offset="0.99" stop-color="#a40054"/></linearGradient></defs><g id="Capa_2" data-name="Capa 2"><g id="Capa_1-2" data-name="Capa 1"><g id="Capa_2-2" data-name="Capa 2"><rect class="cls-1" width="1000" height="1000"/></g><g id="Capa_3" data-name="Capa 3"><path class="cls-2" d="M432.11,656.14a70.28,70.28,0,0,0,99.4,0h0a70.29,70.29,0,0,0,0-99.39L318.67,343.91a70.28,70.28,0,0,0-99.4,0h0a70.29,70.29,0,0,0,0,99.4L345.17,568.9Z"/><path class="cls-3" d="M531.51,130.94a70.3,70.3,0,0,0-99.41,0L219.27,343.78c-26.88,26.87-28.56,68.93-2.81,96.49l1.09,1.16,1.42,1.41c.1.11.19.23.3.34s.24.2.35.32L345.17,568.9c-67.6-67.6,23.16-175.38,23.16-175.38h0l163.2-163.19A70.3,70.3,0,0,0,531.51,130.94Z"/><path class="cls-4" d="M567.9,343.86a70.3,70.3,0,0,0-99.41,0h0a70.3,70.3,0,0,0,0,99.4L681.33,656.1a70.28,70.28,0,0,0,99.4,0h0a70.3,70.3,0,0,0,0-99.41L654.83,431.11Z"/><path class="cls-5" d="M468.49,869.06a70.3,70.3,0,0,0,99.41,0L780.73,656.22c26.88-26.87,28.56-68.93,2.81-96.48l-1.09-1.17L781,557.16c-.1-.11-.19-.23-.3-.33s-.24-.21-.36-.32L654.83,431.11c67.6,67.6-23.16,175.37-23.16,175.37h0L468.5,769.67A70.28,70.28,0,0,0,468.49,869.06Z"/></g></g></g></svg>