<svg xmlns="http://www.w3.org/2000/svg" xmlns:xlink="http://www.w3.org/1999/xlink" viewBox="0 0 1000 200"><defs><style>.cls-1{fill:none;}.cls-2{fill:url(#radial-gradient);}.cls-3{fill:url(#linear-gradient);}.cls-4{fill:url(#linear-gradient-2);}.cls-5{fill:url(#linear-gradient-3);}.cls-6{fill:#1b91b9;}.cls-7{fill:#d0493d;}</style><radialGradient id="radial-gradient" cx="103.23" cy="70.51" r="92.92" gradientUnits="userSpaceOnUse"><stop offset="0.17" stop-color="#1b75b8"/><stop offset="0.33" stop-color="#1b79b8"/><stop offset="0.5" stop-color="#1a85b8"/><stop offset="0.66" stop-color="#1a99b8"/><stop offset="0.82" stop-color="#19b5b8"/><stop offset="0.99" stop-color="#17d9b8"/><stop offset="1" stop-color="#17dcb8"/></radialGradient><linearGradient id="linear-gradient" x1="117.33" y1="61.86" x2="234.92" y2="61.86" gradientUnits="userSpaceOnUse"><stop offset="0" stop-color="#17dcb8"/><stop offset="0.01" stop-color="#17d9b8"/><stop offset="0.18" stop-color="#19b5b8"/><stop offset="0.34" stop-color="#1a99b8"/><stop offset="0.5" stop-color="#1a85b8"/><stop offset="0.67" stop-color="#1b79b8"/><stop offset="0.83" stop-color="#1b75b8"/></linearGradient><linearGradient id="linear-gradient-2" x1="-1123.24" y1="2061.26" x2="-1039.19" y2="2061.26" gradientTransform="translate(-879.79 2161.26) rotate(180)" gradientUnits="userSpaceOnUse"><stop offset="0.01" stop-color="#a40054"/><stop offset="0.14" stop-color="#a70652"/><stop offset="0.32" stop-color="#b1174b"/><stop offset="0.53" stop-color="#c13440"/><stop offset="0.76" stop-color="#d65b30"/><stop offset="1" stop-color="#f28d1d"/></linearGradient><linearGradient id="linear-gradient-3" x1="-1106.04" y1="2023.12" x2="-988.45" y2="2023.12" gradientTransform="translate(-879.79 2161.26) rotate(180)" gradientUnits="userSpaceOnUse"><stop offset="0" stop-color="#f28d1d"/><stop offset="0.24" stop-color="#d65b30"/><stop offset="0.47" stop-color="#c13440"/><stop offset="0.68" stop-color="#b1174b"/><stop offset="0.86" stop-color="#a70652"/><stop offset="0.99" stop-color="#a40054"/></linearGradient></defs><g id="Capa_2" data-name="Capa 2"><g id="Capa_7" data-name="Capa 7"><g id="Capa_8" data-name="Capa 8"><rect class="cls-1" width="1000" height="200"/></g><g id="Capa_9" data-name="Capa 9"><path class="cls-2" d="M155.65,137.13a16.71,16.71,0,0,0,23.64,0h0a16.72,16.72,0,0,0,0-23.63L128.67,62.88a16.7,16.7,0,0,0-23.63,0h0a16.71,16.71,0,0,0,0,23.64L135,116.38Z"/><path class="cls-3" d="M179.29,12.24a16.71,16.71,0,0,0-23.64,0L105,62.85a16.37,16.37,0,0,0-.67,22.95l.26.27.33.34.08.08.08.07L135,116.38c-16.08-16.07,5.5-41.7,5.5-41.7h0l38.81-38.81A16.72,16.72,0,0,0,179.29,12.24Z"/><path class="cls-4" d="M187.94,62.87a16.71,16.71,0,0,0-23.64,0h0a16.73,16.73,0,0,0,0,23.64l50.62,50.61a16.7,16.7,0,0,0,23.63,0h0a16.71,16.71,0,0,0,0-23.64L208.61,83.62Z"/><path class="cls-5" d="M164.3,187.76a16.71,16.71,0,0,0,23.64,0l50.61-50.61a16.36,16.36,0,0,0,.67-22.94l-.26-.28-.33-.34-.08-.08-.08-.07L208.61,83.62c16.08,16.07-5.5,41.7-5.5,41.7h0L164.3,164.13A16.72,16.72,0,0,0,164.3,187.76Z"/><path class="cls-6" d="M284.87,90.4A35.54,35.54,0,0,1,274.92,89a23.25,23.25,0,0,1-7.66-3.62l3.4-7.53a24.63,24.63,0,0,0,6.58,3.24,24.3,24.3,0,0,0,7.69,1.27,16.07,16.07,0,0,0,4.79-.59,5.57,5.57,0,0,0,2.68-1.64,3.66,3.66,0,0,0,.87-2.41A3.26,3.26,0,0,0,291.91,75a11,11,0,0,0-3.58-1.66q-2.22-.66-4.91-1.24c-1.79-.39-3.59-.87-5.38-1.45a23.15,23.15,0,0,1-4.91-2.22,10.87,10.87,0,0,1-3.61-3.59,10.51,10.51,0,0,1-1.39-5.68,12,12,0,0,1,2-6.76,13.62,13.62,0,0,1,6.05-4.88,24.69,24.69,0,0,1,10.16-1.83,33.86,33.86,0,0,1,8,1,23.33,23.33,0,0,1,7,2.87l-3.09,7.6a25.94,25.94,0,0,0-6-2.56,22.16,22.16,0,0,0-5.93-.84,14.12,14.12,0,0,0-4.76.68,5.64,5.64,0,0,0-2.65,1.76,4.08,4.08,0,0,0-.81,2.51,3.21,3.21,0,0,0,1.36,2.68A10.7,10.7,0,0,0,283,63q2.22.62,4.91,1.23c1.79.42,3.58.89,5.37,1.43a20.37,20.37,0,0,1,4.91,2.16,10.84,10.84,0,0,1,3.61,3.58,10.41,10.41,0,0,1,1.4,5.62,11.66,11.66,0,0,1-2,6.67,14.19,14.19,0,0,1-6.09,4.88A24.5,24.5,0,0,1,284.87,90.4Z"/><path class="cls-6" d="M343.43,90.4A26.31,26.31,0,0,1,334,88.73a22.33,22.33,0,0,1-7.54-4.7,21.26,21.26,0,0,1-4.94-7.1,23.36,23.36,0,0,1,0-17.79,21.06,21.06,0,0,1,5-7.1,22.73,22.73,0,0,1,7.54-4.7,27.32,27.32,0,0,1,18.81,0,22.51,22.51,0,0,1,7.47,4.7A21.6,21.6,0,0,1,367,68a22,22,0,0,1-1.8,8.93,21.37,21.37,0,0,1-5,7.11,22.91,22.91,0,0,1-7.47,4.66A25.73,25.73,0,0,1,343.43,90.4Zm-.06-8.53a14.1,14.1,0,0,0,5.34-1A12.51,12.51,0,0,0,353,78a12.94,12.94,0,0,0,2.88-4.38,16.17,16.17,0,0,0,0-11.25A13.17,13.17,0,0,0,353,58a12.28,12.28,0,0,0-4.29-2.84,14.33,14.33,0,0,0-5.37-1,14.11,14.11,0,0,0-5.35,1,12.87,12.87,0,0,0-7.16,7.22,15.94,15.94,0,0,0,0,11.22A13.08,13.08,0,0,0,333.7,78,12.14,12.14,0,0,0,338,80.88,14.34,14.34,0,0,0,343.37,81.87Z"/><path class="cls-6" d="M396.92,89.66h-10V46.41h32.67v8H396.92Zm-.74-23.79h20.76v8H396.18Z"/><path class="cls-6" d="M448,89.66V54.57H434.17V46.41h37.68v8.16H458V89.66Z"/><path class="cls-6" d="M489.58,89.66V46.41h21.13q8.15,0,12.26,3.09a9.72,9.72,0,0,1,4.11,8.16,10.42,10.42,0,0,1-1.67,5.9,11,11,0,0,1-4.57,3.86,15.67,15.67,0,0,1-6.67,1.36l1.17-2.54a18.57,18.57,0,0,1,7.23,1.33,10.87,10.87,0,0,1,4.91,3.92,11.1,11.1,0,0,1,1.76,6.37,10.05,10.05,0,0,1-4.39,8.68q-4.38,3.12-12.91,3.12Zm9.95-7.54H511.2a11.1,11.1,0,0,0,5.9-1.27,4.41,4.41,0,0,0,2-4,4.52,4.52,0,0,0-2-4,10.78,10.78,0,0,0-5.9-1.33H498.79V64.14h10.68a10.28,10.28,0,0,0,5.59-1.26A4.29,4.29,0,0,0,517,59a4.22,4.22,0,0,0-2-3.8A10.19,10.19,0,0,0,509.47,54h-9.94Z"/><path class="cls-6" d="M568.4,90.4q-9.2,0-14.39-5.13t-5.19-14.64V46.41h10V70.26q0,6.18,2.53,8.89a10.64,10.64,0,0,0,14.21,0q2.53-2.72,2.53-8.89V46.41H588V70.63q0,9.51-5.19,14.64T568.4,90.4Z"/><path class="cls-6" d="M610.23,89.66V46.41h10V89.66Z"/><path class="cls-6" d="M642.84,89.66V46.41h10V81.5h21.68v8.16Z"/><path class="cls-6" d="M692.5,89.66V46.41h19.65a27.48,27.48,0,0,1,12.42,2.69,20.49,20.49,0,0,1,8.4,7.51A21.08,21.08,0,0,1,736,68a21.13,21.13,0,0,1-3,11.4,20.42,20.42,0,0,1-8.4,7.54,27.48,27.48,0,0,1-12.42,2.69Zm10-8.22h9.14a16.21,16.21,0,0,0,7.51-1.64,11.82,11.82,0,0,0,4.94-4.66A13.84,13.84,0,0,0,725.86,68a13.79,13.79,0,0,0-1.76-7.13,11.88,11.88,0,0,0-4.94-4.63,16.21,16.21,0,0,0-7.51-1.64h-9.14Z"/><path class="cls-6" d="M765.83,81.62h23.54v8H755.88V46.41h32.68v8H765.83Zm-.74-17.79h20.82v7.79H765.09Z"/><path class="cls-6" d="M809.69,89.66V46.41h18.72a24.21,24.21,0,0,1,10,1.89,14.71,14.71,0,0,1,6.49,5.4,15.13,15.13,0,0,1,2.28,8.4,14.82,14.82,0,0,1-2.28,8.31,14.55,14.55,0,0,1-6.49,5.35,24.73,24.73,0,0,1-10,1.85H815.25l4.45-4.39V89.66Zm10-15.32-4.45-4.7h12.6c3.09,0,5.39-.67,6.92-2a7,7,0,0,0,2.28-5.53,6.94,6.94,0,0,0-2.28-5.55c-1.53-1.32-3.83-2-6.92-2h-12.6l4.45-4.76Zm17.48,15.32L826.37,74h10.68L848,89.66Z"/><path class="cls-6" d="M881.65,90.4A35.47,35.47,0,0,1,871.71,89a23.15,23.15,0,0,1-7.66-3.62l3.4-7.53a25.76,25.76,0,0,0,14.27,4.51,16,16,0,0,0,4.78-.59,5.6,5.6,0,0,0,2.69-1.64,3.65,3.65,0,0,0,.86-2.41A3.27,3.27,0,0,0,888.7,75a11.11,11.11,0,0,0-3.59-1.66q-2.22-.66-4.91-1.24t-5.37-1.45a23.15,23.15,0,0,1-4.91-2.22,10.9,10.9,0,0,1-3.62-3.59,10.6,10.6,0,0,1-1.39-5.68,12,12,0,0,1,2-6.76A13.73,13.73,0,0,1,873,47.5a24.74,24.74,0,0,1,10.17-1.83,34,34,0,0,1,8,1,23.43,23.43,0,0,1,7,2.87l-3.09,7.6A26.19,26.19,0,0,0,889,54.54a22,22,0,0,0-5.93-.84,14.06,14.06,0,0,0-4.75.68,5.68,5.68,0,0,0-2.66,1.76,4.13,4.13,0,0,0-.8,2.51,3.18,3.18,0,0,0,1.36,2.68A10.64,10.64,0,0,0,879.8,63q2.22.62,4.91,1.23c1.79.42,3.58.89,5.38,1.43A20.55,20.55,0,0,1,895,67.79a10.93,10.93,0,0,1,3.61,3.58A10.41,10.41,0,0,1,900,77a11.66,11.66,0,0,1-2,6.67,14.22,14.22,0,0,1-6.08,4.88A24.55,24.55,0,0,1,881.65,90.4Z"/><path class="cls-7" d="M275.68,142.46a9.66,9.66,0,0,1-3.58-.64,8.49,8.49,0,0,1-2.84-1.82,8.61,8.61,0,0,1-1.88-2.76,9.19,9.19,0,0,1,0-6.94,8.45,8.45,0,0,1,4.74-4.57,10.18,10.18,0,0,1,7.21,0,7.44,7.44,0,0,1,2.83,2l-1.58,1.53a6.29,6.29,0,0,0-2.18-1.52,6.84,6.84,0,0,0-2.6-.5,7.07,7.07,0,0,0-2.66.49,6.43,6.43,0,0,0-2.12,1.36,6.07,6.07,0,0,0-1.4,2.07,7.2,7.2,0,0,0,0,5.22,6.2,6.2,0,0,0,1.4,2.08,6.59,6.59,0,0,0,2.12,1.36,7.27,7.27,0,0,0,2.66.48,6.65,6.65,0,0,0,2.6-.5,6.09,6.09,0,0,0,2.18-1.54l1.58,1.53a7.47,7.47,0,0,1-2.83,2A9.42,9.42,0,0,1,275.68,142.46Z"/><path class="cls-7" d="M322.06,142.46a9.88,9.88,0,0,1-3.6-.65,8.61,8.61,0,0,1-2.88-1.84,8.34,8.34,0,0,1-1.89-2.75,9.07,9.07,0,0,1,0-6.89,8.38,8.38,0,0,1,1.89-2.76,8.65,8.65,0,0,1,2.87-1.83,10.19,10.19,0,0,1,7.19,0,8.4,8.4,0,0,1,4.76,4.57,9.32,9.32,0,0,1,0,6.94,8.49,8.49,0,0,1-1.89,2.76,8.72,8.72,0,0,1-2.87,1.82A9.66,9.66,0,0,1,322.06,142.46Zm0-2.16a7,7,0,0,0,2.61-.48,6.29,6.29,0,0,0,3.47-3.45,7,7,0,0,0,0-5.2,6.36,6.36,0,0,0-1.38-2.07,6.17,6.17,0,0,0-2.09-1.37,7.25,7.25,0,0,0-5.24,0,6.31,6.31,0,0,0-2.1,1.37,6.42,6.42,0,0,0-1.4,2.07,7.14,7.14,0,0,0,0,5.2,6.42,6.42,0,0,0,1.4,2.07,6.5,6.5,0,0,0,2.1,1.38A7,7,0,0,0,322.06,140.3Z"/><path class="cls-7" d="M363.91,142.27v-17h7.16a10.22,10.22,0,0,1,4.79,1.07,7.83,7.83,0,0,1,3.23,3,9.15,9.15,0,0,1,0,8.88,7.85,7.85,0,0,1-3.23,3,10.34,10.34,0,0,1-4.79,1.07Zm2.43-2.11h4.58a7.9,7.9,0,0,0,3.66-.8,6,6,0,0,0,2.39-2.25,7,7,0,0,0,0-6.69,5.91,5.91,0,0,0-2.39-2.23,7.9,7.9,0,0,0-3.66-.8h-4.58Z"/><path class="cls-7" d="M415.51,140.16h9.9v2.11H413.08v-17h12v2.11h-9.56Zm-.22-7.55H424v2.06h-8.74Z"/><path class="cls-7" d="M491.55,142.27l7.7-17h2.4l7.72,17h-2.55L500,126.64h1l-6.87,15.63Zm3.28-4.25.66-1.94h9.56l.7,1.94Z"/><path class="cls-7" d="M541,142.27v-17h6.63a9.29,9.29,0,0,1,3.81.7,5.44,5.44,0,0,1,2.43,2,5.85,5.85,0,0,1,.84,3.18,5.79,5.79,0,0,1-.84,3.17,5.46,5.46,0,0,1-2.43,2,9.29,9.29,0,0,1-3.81.71h-5.29l1.09-1.12v6.29Zm2.43-6.05L542.36,135h5.21a5.4,5.4,0,0,0,3.54-1,3.93,3.93,0,0,0,0-5.65,5.45,5.45,0,0,0-3.54-1h-5.21l1.09-1.22Zm8.93,6.05-4.32-6.17h2.6l4.37,6.17Z"/><path class="cls-7" d="M590.92,142.27V127.39H585.1v-2.11h14v2.11h-5.82v14.88Z"/><path class="cls-7" d="M630.92,142.27v-17h2.43v17Z"/><path class="cls-7" d="M672.52,142.46a11.76,11.76,0,0,1-3.71-.59,7.68,7.68,0,0,1-2.79-1.54l.9-1.9a7.81,7.81,0,0,0,2.47,1.41,9,9,0,0,0,3.13.56,7,7,0,0,0,2.41-.34,2.88,2.88,0,0,0,1.36-.94,2.19,2.19,0,0,0,.43-1.34,1.85,1.85,0,0,0-.57-1.41,4.16,4.16,0,0,0-1.48-.86,15.44,15.44,0,0,0-2-.57q-1.09-.24-2.19-.57a10,10,0,0,1-2-.84,4.12,4.12,0,0,1-1.47-1.37,4.06,4.06,0,0,1-.56-2.22,4.41,4.41,0,0,1,.7-2.42,4.87,4.87,0,0,1,2.13-1.77,8.87,8.87,0,0,1,3.68-.67,11.29,11.29,0,0,1,2.93.39,8,8,0,0,1,2.53,1.12l-.8,1.94a7.78,7.78,0,0,0-2.31-1.06,9.34,9.34,0,0,0-2.35-.32,6.58,6.58,0,0,0-2.36.36,2.87,2.87,0,0,0-1.34,1,2.29,2.29,0,0,0-.43,1.36,1.85,1.85,0,0,0,.57,1.43,4.09,4.09,0,0,0,1.48.85,20.41,20.41,0,0,0,2,.57c.72.17,1.46.36,2.19.57a9.4,9.4,0,0,1,2,.83,4.26,4.26,0,0,1,1.47,1.36,3.89,3.89,0,0,1,.55,2.18,4.33,4.33,0,0,1-.7,2.39,4.8,4.8,0,0,1-2.17,1.77A8.92,8.92,0,0,1,672.52,142.46Z"/><path class="cls-7" d="M709.2,142.27l7.7-17h2.4l7.72,17h-2.55l-6.87-15.63h1l-6.87,15.63Zm3.28-4.25.65-1.94h9.57l.7,1.94Z"/><path class="cls-7" d="M758.67,142.27v-17h2l11.24,13.95h-1V125.28h2.43v17h-2l-11.24-14h1v14Z"/><path class="cls-7" d="M812.45,142.46a11.76,11.76,0,0,1-3.71-.59,7.68,7.68,0,0,1-2.79-1.54l.9-1.9a7.7,7.7,0,0,0,2.47,1.41,9,9,0,0,0,3.13.56,7,7,0,0,0,2.41-.34,2.84,2.84,0,0,0,1.35-.94,2.14,2.14,0,0,0,.44-1.34,1.85,1.85,0,0,0-.57-1.41,4.16,4.16,0,0,0-1.48-.86,15.91,15.91,0,0,0-2-.57c-.73-.16-1.46-.35-2.2-.57a9.86,9.86,0,0,1-2-.84,4.12,4.12,0,0,1-1.47-1.37,4.06,4.06,0,0,1-.56-2.22,4.48,4.48,0,0,1,.69-2.42,4.9,4.9,0,0,1,2.14-1.77,8.85,8.85,0,0,1,3.67-.67,11.31,11.31,0,0,1,2.94.39,8.24,8.24,0,0,1,2.53,1.12l-.8,1.94a7.78,7.78,0,0,0-2.31-1.06,9.36,9.36,0,0,0-2.36-.32,6.56,6.56,0,0,0-2.35.36,3,3,0,0,0-1.35,1,2.35,2.35,0,0,0-.42,1.36,1.85,1.85,0,0,0,.57,1.43,4,4,0,0,0,1.48.85,20.19,20.19,0,0,0,2,.57c.73.17,1.46.36,2.2.57a9.31,9.31,0,0,1,2,.83,4.09,4.09,0,0,1,1.47,1.36,3.9,3.9,0,0,1,.56,2.18,4.33,4.33,0,0,1-.7,2.39,4.83,4.83,0,0,1-2.18,1.77A8.87,8.87,0,0,1,812.45,142.46Z"/></g></g></g></svg>