<svg xmlns="http://www.w3.org/2000/svg" viewBox="0 0 1000 1000"><defs><style>.cls-1{fill:none;}.cls-2{fill:#fff;}</style></defs><g id="Capa_2" data-name="Capa 2"><g id="Capa_22" data-name="Capa 22"><g id="Capa_23" data-name="Capa 23"><rect class="cls-1" width="1000" height="1000"/></g><g id="Capa_24" data-name="Capa 24"><path class="cls-2" d="M447.55,532a54.31,54.31,0,0,0,76.79,0h0a54.3,54.3,0,0,0,0-76.78L359.93,290.77a54.3,54.3,0,0,0-76.79,0h0a54.29,54.29,0,0,0,0,76.78l97.25,97Z"/><path class="cls-2" d="M524.34,126.26a54.3,54.3,0,0,0-76.79,0L283.14,290.67c-20.76,20.76-22.06,53.25-2.16,74.54l.84.89,1.09,1.09c.08.09.15.18.23.26l.28.25,97,96.87c-52.22-52.22,17.89-135.47,17.89-135.47h0L524.34,203A54.3,54.3,0,0,0,524.34,126.26Z"/><path class="cls-2" d="M552.45,290.73a54.31,54.31,0,0,0-76.79,0h0a54.3,54.3,0,0,0,0,76.78L640.07,531.93a54.3,54.3,0,0,0,76.79,0h0a54.31,54.31,0,0,0,0-76.79l-97.26-97Z"/><path class="cls-2" d="M475.66,696.43a54.3,54.3,0,0,0,76.79,0L716.86,532c20.76-20.76,22.06-53.26,2.16-74.54l-.84-.9-1.09-1.09c-.08-.08-.15-.17-.23-.26s-.19-.16-.28-.24l-97-96.87c52.22,52.22-17.89,135.47-17.89,135.47h0L475.66,619.66A54.28,54.28,0,0,0,475.66,696.43Z"/><path class="cls-2" d="M189.9,805.69a36.67,36.67,0,0,1-10.33-1.44,24.11,24.11,0,0,1-7.95-3.75l3.53-7.83A25.46,25.46,0,0,0,182,796a25,25,0,0,0,8,1.32,16.83,16.83,0,0,0,5-.61,5.84,5.84,0,0,0,2.79-1.7,3.82,3.82,0,0,0,.9-2.5,3.42,3.42,0,0,0-1.41-2.86,11.82,11.82,0,0,0-3.72-1.73c-1.54-.45-3.24-.87-5.1-1.28s-3.72-.91-5.58-1.51a23.23,23.23,0,0,1-5.1-2.3,11.3,11.3,0,0,1-3.75-3.72,11,11,0,0,1-1.44-5.9,12.48,12.48,0,0,1,2.08-7,14.25,14.25,0,0,1,6.29-5.07,25.71,25.71,0,0,1,10.54-1.89,35.43,35.43,0,0,1,8.34,1,24.08,24.08,0,0,1,7.24,3l-3.2,7.88a27.88,27.88,0,0,0-6.28-2.66,23,23,0,0,0-6.16-.86,14.62,14.62,0,0,0-4.94.7,5.77,5.77,0,0,0-2.75,1.83,4.21,4.21,0,0,0-.84,2.59,3.31,3.31,0,0,0,1.41,2.79,10.9,10.9,0,0,0,3.72,1.7q2.31.64,5.1,1.28t5.58,1.48a21.78,21.78,0,0,1,5.1,2.24,11.59,11.59,0,0,1,3.75,3.72,10.87,10.87,0,0,1,1.44,5.84,12.12,12.12,0,0,1-2.12,6.92,14.71,14.71,0,0,1-6.31,5.07A25.58,25.58,0,0,1,189.9,805.69Z"/><path class="cls-2" d="M250.68,805.69a27.35,27.35,0,0,1-9.84-1.73,23.34,23.34,0,0,1-7.83-4.87,22.28,22.28,0,0,1-5.13-7.38,24.31,24.31,0,0,1,0-18.46,22.05,22.05,0,0,1,5.17-7.38,23.86,23.86,0,0,1,7.82-4.87,28.4,28.4,0,0,1,19.52,0,23.59,23.59,0,0,1,7.76,4.87,22.85,22.85,0,0,1,5.16,7.35,22.59,22.59,0,0,1,1.86,9.26,23,23,0,0,1-1.86,9.27,22.2,22.2,0,0,1-5.16,7.37,23.69,23.69,0,0,1-7.76,4.84A26.68,26.68,0,0,1,250.68,805.69Zm-.06-8.85a14.72,14.72,0,0,0,5.54-1,13.51,13.51,0,0,0,4.46-3,13.66,13.66,0,0,0,3-4.55,16.59,16.59,0,0,0,0-11.67,13.84,13.84,0,0,0-3-4.56,13,13,0,0,0-4.46-3,15,15,0,0,0-5.57-1,14.73,14.73,0,0,0-5.55,1,13.4,13.4,0,0,0-4.46,3,13.61,13.61,0,0,0-3,4.56,16.48,16.48,0,0,0,0,11.63,13.77,13.77,0,0,0,3,4.59,13,13,0,0,0,4.46,3A15,15,0,0,0,250.62,796.84Z"/><path class="cls-2" d="M306.21,804.92H295.82V760h33.92v8.33H306.21Zm-.77-24.68H327v8.33H305.44Z"/><path class="cls-2" d="M359.23,804.92V768.5H344.87V760H384v8.46H369.62v36.42Z"/><path class="cls-2" d="M402.38,804.92V760h21.93q8.46,0,12.73,3.21a10.06,10.06,0,0,1,4.26,8.46,10.8,10.8,0,0,1-1.73,6.12,11.37,11.37,0,0,1-4.74,4,16.19,16.19,0,0,1-6.93,1.41l1.22-2.63a19.15,19.15,0,0,1,7.5,1.38,11.33,11.33,0,0,1,5.1,4.07,11.49,11.49,0,0,1,1.83,6.6,10.42,10.42,0,0,1-4.56,9q-4.55,3.24-13.4,3.24Zm10.33-7.82h12.11a11.66,11.66,0,0,0,6.13-1.31,4.63,4.63,0,0,0,2.08-4.21,4.7,4.7,0,0,0-2.08-4.19,11.15,11.15,0,0,0-6.13-1.38H411.94v-7.57H423a10.71,10.71,0,0,0,5.8-1.31,4.46,4.46,0,0,0,2-4,4.37,4.37,0,0,0-2-3.94,10.62,10.62,0,0,0-5.8-1.32H412.71Z"/><path class="cls-2" d="M484.2,805.69q-9.56,0-14.94-5.32t-5.39-15.2V760h10.39v24.75c0,4.27.87,7.35,2.63,9.23a11,11,0,0,0,14.74,0c1.76-1.88,2.63-5,2.63-9.23V760h10.26v25.13q0,9.89-5.38,15.2T484.2,805.69Z"/><path class="cls-2" d="M527.6,804.92V760H538v44.88Z"/><path class="cls-2" d="M561.46,804.92V760h10.38v36.42h22.51v8.46Z"/><path class="cls-2" d="M613,804.92V760H633.4a28.47,28.47,0,0,1,12.89,2.79,21.35,21.35,0,0,1,8.72,7.79,23.91,23.91,0,0,1,0,23.69,21.27,21.27,0,0,1-8.72,7.82,28.47,28.47,0,0,1-12.89,2.79Zm10.39-8.53h9.48a16.89,16.89,0,0,0,7.8-1.69,12.29,12.29,0,0,0,5.12-4.85,15.82,15.82,0,0,0,0-14.77,12.26,12.26,0,0,0-5.12-4.81,16.77,16.77,0,0,0-7.8-1.7H623.4Z"/><path class="cls-2" d="M689.12,796.59h24.42v8.33H678.79V760h33.92v8.33H689.12Zm-.77-18.47H710v8.08h-21.6Z"/><path class="cls-2" d="M734.64,804.92V760h19.43a25.27,25.27,0,0,1,10.38,2,15.3,15.3,0,0,1,6.74,5.62,15.65,15.65,0,0,1,2.37,8.72,15.41,15.41,0,0,1-2.37,8.62,15.22,15.22,0,0,1-6.74,5.55,25.61,25.61,0,0,1-10.38,1.92H740.41l4.62-4.55v17ZM745,789l-4.62-4.87h13.08q4.82,0,7.18-2.09a8.17,8.17,0,0,0,0-11.51c-1.58-1.36-4-2-7.18-2H740.41l4.62-4.93Zm18.14,15.9L752,788.64H763l11.35,16.28Z"/><path class="cls-2" d="M809.34,805.69A36.73,36.73,0,0,1,799,804.25a24.11,24.11,0,0,1-8-3.75l3.53-7.83a25.46,25.46,0,0,0,6.83,3.37,25,25,0,0,0,8,1.32,16.83,16.83,0,0,0,5-.61,5.84,5.84,0,0,0,2.79-1.7,3.82,3.82,0,0,0,.9-2.5,3.42,3.42,0,0,0-1.41-2.86,11.92,11.92,0,0,0-3.72-1.73c-1.54-.45-3.24-.87-5.1-1.28s-3.72-.91-5.58-1.51a23.23,23.23,0,0,1-5.1-2.3,11.3,11.3,0,0,1-3.75-3.72,11,11,0,0,1-1.44-5.9,12.48,12.48,0,0,1,2.08-7,14.25,14.25,0,0,1,6.29-5.07,25.71,25.71,0,0,1,10.54-1.89,35.43,35.43,0,0,1,8.34,1,24.14,24.14,0,0,1,7.25,3l-3.21,7.88a27.88,27.88,0,0,0-6.28-2.66,23,23,0,0,0-6.16-.86,14.62,14.62,0,0,0-4.94.7,5.77,5.77,0,0,0-2.75,1.83,4.21,4.21,0,0,0-.84,2.59,3.31,3.31,0,0,0,1.41,2.79,10.9,10.9,0,0,0,3.72,1.7q2.31.64,5.1,1.28t5.58,1.48a21.78,21.78,0,0,1,5.1,2.24,11.59,11.59,0,0,1,3.75,3.72,10.87,10.87,0,0,1,1.44,5.84,12.12,12.12,0,0,1-2.12,6.92,14.71,14.71,0,0,1-6.31,5.07A25.58,25.58,0,0,1,809.34,805.69Z"/><path class="cls-2" d="M222.76,859.73a10.25,10.25,0,0,1-3.72-.66,9.17,9.17,0,0,1-4.9-12,8.8,8.8,0,0,1,4.93-4.75,10.7,10.7,0,0,1,7.48,0,7.7,7.7,0,0,1,2.94,2.05L227.85,846a6.57,6.57,0,0,0-2.27-1.58,7.13,7.13,0,0,0-2.7-.51,7.47,7.47,0,0,0-2.75.5,6.74,6.74,0,0,0-2.21,1.41,6.47,6.47,0,0,0-1.45,2.16,7.43,7.43,0,0,0,0,5.41,6.57,6.57,0,0,0,1.45,2.16,6.74,6.74,0,0,0,2.21,1.41,7.47,7.47,0,0,0,2.75.5,7,7,0,0,0,2.7-.52,6.34,6.34,0,0,0,2.27-1.59l1.64,1.58a7.86,7.86,0,0,1-2.94,2.07A9.91,9.91,0,0,1,222.76,859.73Z"/><path class="cls-2" d="M270.9,859.73a10,10,0,0,1-3.74-.68,8.82,8.82,0,0,1-5-4.76,9.48,9.48,0,0,1,0-7.15,8.66,8.66,0,0,1,2-2.86,8.84,8.84,0,0,1,3-1.9,9.93,9.93,0,0,1,3.75-.68,10.17,10.17,0,0,1,3.72.66,9.18,9.18,0,0,1,3,1.89,8.56,8.56,0,0,1,2,2.86,9.76,9.76,0,0,1,0,7.21,8.56,8.56,0,0,1-2,2.86,9.18,9.18,0,0,1-3,1.89A10.17,10.17,0,0,1,270.9,859.73Zm0-2.24a7.26,7.26,0,0,0,2.71-.5,6.41,6.41,0,0,0,2.17-1.43,6.58,6.58,0,0,0,1.43-2.15,7.24,7.24,0,0,0,0-5.39,6.73,6.73,0,0,0-1.43-2.16,6.54,6.54,0,0,0-2.17-1.42,7.65,7.65,0,0,0-5.44,0,6.68,6.68,0,0,0-2.18,1.42,6.78,6.78,0,0,0-1.45,2.16,7.38,7.38,0,0,0,0,5.39,6.63,6.63,0,0,0,1.45,2.15,6.55,6.55,0,0,0,2.18,1.43A7.33,7.33,0,0,0,270.9,857.49Z"/><path class="cls-2" d="M314.34,859.53V841.9h7.43a10.87,10.87,0,0,1,5,1.1,8.29,8.29,0,0,1,3.35,3.1,9.54,9.54,0,0,1,0,9.23,8.27,8.27,0,0,1-3.35,3.09,10.75,10.75,0,0,1-5,1.11Zm2.52-2.19h4.76a8.18,8.18,0,0,0,3.79-.83,6,6,0,0,0,2.48-2.33,7.28,7.28,0,0,0,0-6.94,6,6,0,0,0-2.48-2.32,8.18,8.18,0,0,0-3.79-.83h-4.76Z"/><path class="cls-2" d="M367.9,857.34h10.28v2.19h-12.8V841.9h12.44v2.19H367.9Zm-.23-7.84h9.07v2.15h-9.07Z"/><path class="cls-2" d="M446.83,859.53l8-17.63h2.49l8,17.63h-2.64l-7.13-16.22h1l-7.13,16.22Zm3.4-4.41.68-2h9.93l.73,2Z"/><path class="cls-2" d="M498.17,859.53V841.9h6.88a9.62,9.62,0,0,1,4,.73,5.59,5.59,0,0,1,2.52,2.11,6,6,0,0,1,.88,3.3,5.92,5.92,0,0,1-.88,3.29,5.65,5.65,0,0,1-2.52,2.11,9.79,9.79,0,0,1-4,.73h-5.49l1.13-1.16v6.52Zm2.52-6.27L499.56,852H505a5.55,5.55,0,0,0,3.66-1,3.64,3.64,0,0,0,1.25-2.94,3.58,3.58,0,0,0-1.25-2.92,5.6,5.6,0,0,0-3.66-1h-5.42l1.13-1.26Zm9.27,6.27-4.48-6.4h2.7l4.53,6.4Z"/><path class="cls-2" d="M550,859.53V844.09h-6.05V841.9h14.59v2.19h-6v15.44Z"/><path class="cls-2" d="M591.49,859.53V841.9H594v17.63Z"/><path class="cls-2" d="M634.67,859.73a12,12,0,0,1-3.85-.61,8,8,0,0,1-2.9-1.6l.93-2a8,8,0,0,0,2.57,1.46,9.2,9.2,0,0,0,3.25.58,7.51,7.51,0,0,0,2.5-.35,3,3,0,0,0,1.41-1,2.32,2.32,0,0,0,.45-1.4,1.93,1.93,0,0,0-.59-1.46,4.34,4.34,0,0,0-1.54-.89,16.67,16.67,0,0,0-2.08-.6c-.75-.16-1.51-.36-2.28-.59a10.08,10.08,0,0,1-2.09-.87,3.95,3.95,0,0,1-2.1-3.73,4.61,4.61,0,0,1,.72-2.5,4.92,4.92,0,0,1,2.21-1.84,9.19,9.19,0,0,1,3.82-.69,11.78,11.78,0,0,1,3,.4,8.37,8.37,0,0,1,2.62,1.16l-.83,2a8.09,8.09,0,0,0-2.4-1.09,9.19,9.19,0,0,0-2.44-.34,6.74,6.74,0,0,0-2.44.37,3,3,0,0,0-1.4,1,2.36,2.36,0,0,0-.44,1.41,1.93,1.93,0,0,0,.59,1.49A4.24,4.24,0,0,0,633,849a18.63,18.63,0,0,0,2.08.59q1.13.27,2.28.6a9.53,9.53,0,0,1,2.09.85,4.38,4.38,0,0,1,1.52,1.41,4,4,0,0,1,.58,2.27,4.49,4.49,0,0,1-.73,2.48,5,5,0,0,1-2.26,1.84A9.29,9.29,0,0,1,634.67,859.73Z"/><path class="cls-2" d="M672.74,859.53l8-17.63h2.49l8,17.63h-2.64l-7.13-16.22h1l-7.13,16.22Zm3.4-4.41.68-2h9.93l.73,2Z"/><path class="cls-2" d="M724.08,859.53V841.9h2.07l11.66,14.48h-1.08V841.9h2.52v17.63h-2.07l-11.66-14.48h1.08v14.48Z"/><path class="cls-2" d="M779.91,859.73a12,12,0,0,1-3.85-.61,8,8,0,0,1-2.9-1.6l.93-2a8,8,0,0,0,2.57,1.46,9.2,9.2,0,0,0,3.25.58,7.51,7.51,0,0,0,2.5-.35,3,3,0,0,0,1.41-1,2.32,2.32,0,0,0,.45-1.4,1.93,1.93,0,0,0-.59-1.46,4.34,4.34,0,0,0-1.54-.89,16.67,16.67,0,0,0-2.08-.6c-.75-.16-1.51-.36-2.28-.59a10.08,10.08,0,0,1-2.09-.87,3.95,3.95,0,0,1-2.1-3.73,4.61,4.61,0,0,1,.72-2.5,4.92,4.92,0,0,1,2.21-1.84,9.19,9.19,0,0,1,3.82-.69,11.72,11.72,0,0,1,3,.4,8.37,8.37,0,0,1,2.62,1.16l-.83,2a8.16,8.16,0,0,0-2.39-1.09,9.32,9.32,0,0,0-2.45-.34,6.77,6.77,0,0,0-2.44.37,3,3,0,0,0-1.4,1,2.43,2.43,0,0,0-.44,1.41,1.93,1.93,0,0,0,.59,1.49,4.24,4.24,0,0,0,1.54.88,18.63,18.63,0,0,0,2.08.59q1.13.27,2.28.6a9.53,9.53,0,0,1,2.09.85,4.38,4.38,0,0,1,1.52,1.41,4,4,0,0,1,.58,2.27,4.49,4.49,0,0,1-.73,2.48,5,5,0,0,1-2.26,1.84A9.29,9.29,0,0,1,779.91,859.73Z"/></g></g></g></svg>